<svg class="icon" viewBox="0 0 1024 1024" version="1.1" xmlns="http://www.w3.org/2000/svg" width="256" height="256">
    <path fill="#9B9B9B" d="M782.258899 347.826584c-91.543627 0.254999-183.087254 3.158987-274.629881 3.158987H234.56113c-10.625957 0-9.73196-5.998976-9.731961 4.594981V749.736947c0 3.700985-0.350999 7.40297-0.095999 11.071955 2.45699 33.726863 31.652871 61.42275 65.474733 61.773748 13.177946 0.126999 26.291893 0.477998 39.43784-0.159999 7.40297-0.349999 9.061963 2.041992 8.997963 9.189962-0.349999 42.213828-0.254999 84.427656-0.159999 126.641485 0.033 24.5369 9.82796 44.25582 31.110873 56.731769 42.724826 25.079898 95.149613-5.072979 95.436611-54.689778 0.286999-43.266824 0.159999-86.533648-0.063999-129.800471-0.032-5.998976 1.243995-8.167967 7.752968-8.072967 22.941907 0.414998 45.915813 0.478998 68.85772-0.032 7.33797-0.159999 8.646965 2.39299 8.614964 9.061963-0.286999 42.724826-0.127999 85.480652-0.127999 128.205478 0 5.264979 0.064 10.561957 1.339995 15.729936 8.136967 32.354868 37.204848 51.850789 71.15471 47.702806 30.184877-3.700985 53.285783-30.822874 53.317783-62.857744 0.064-40.108837 0-80.216673 0-120.29251 0-17.357929 0-17.16693 17.421929-17.42193 14.74094-0.222999 29.673879 1.945992 44.19182-1.339994 33.088865-7.497969 53.732781-35.257856 53.732781-71.537709 0.032-131.906463-0.032-262.313932 0.191999-394.220394 0-7.30697-1.978992-7.593969-9.157963-7.593969zM939.788258 403.346357c0-5.519978-0.351999-11.071955-1.021996-16.527932-3.892984-32.00387-32.736867-55.392774-66.30373-53.924781-31.492872 1.371994-58.646761 28.525884-58.96576 60.177755-0.446998 44.830817-0.127999 89.661635-0.095999 134.491453 0 45.372815-0.349999 90.713631 0.127999 136.087445 0.286999 26.354893 20.196918 50.413795 45.659814 57.114768 41.83083 11.007955 80.534672-18.953923 80.599672-62.666745 0.095-84.906654 0.031-169.813308 0-254.751963zM199.112274 378.20246c-9.029963-29.737879-43.840821-49.2018-73.802699-44.989817-32.258869 4.530982-60.018756 30.567876-60.018756 63.145743v132.098462c0 43.776822 5.041979 87.554643 5.105979 131.332465 0 4.211983 2.55199 8.519965 3.413986 12.570949 7.019971 33.311864 37.076849 53.605782 71.983707 50.063796 30.535876-3.094987 54.785777-30.279877 54.817777-62.826744 0.064-87.809642 0.349999-175.619285 0.349999-263.429927-0.031-6.062975-0.063-12.093951-1.849993-17.964927zM777.599918 242.754011C754.371013 178.970271 711.647187 132.066462 652.809427 99.329596c-5.296978-2.966988-5.647977-4.88198-2.775989-9.95496 13.177946-23.387905 25.844895-47.095808 38.831842-70.579713 2.998988-5.392978 4.498982-10.433958-1.691993-14.389941-4.91298-3.159987-9.79496-0.893996-13.719944 6.189975-13.081947 23.769903-26.227893 47.509807-38.990842 71.440709-2.679989 5.041979-5.105979 5.806976-10.369957 3.573985C587.492693 70.101715 549.139849 62.729745 509.51001 62.475746c-41.288832-0.286999-81.236669 7.050971-119.302514 23.291905-5.073979 2.169991-7.179971 1.116995-9.699961-3.572986-10.721956-20.229918-21.889911-40.235836-32.929865-60.337754-2.647989-4.84998-5.263979-9.73196-8.135967-14.453941-2.583989-4.275983-6.636973-5.169979-11.007955-3.445986-4.434982 1.722993-5.328978 5.646977-4.499982 9.82696 0.447998 2.265991 1.659993 4.403982 2.776989 6.477973 12.475949 22.909907 24.696899 45.914813 37.650846 68.537721 3.541986 6.189975 1.754993 8.008967-3.573985 11.071955-82.576664 47.701806-131.012466 117.484522-137.713439 214.133128-0.478998 6.955972 1.179995 9.379962 8.805964 9.348962 91.543627-0.286999 183.055255-0.191999 274.598881-0.191999 91.798626 0 183.597252-0.095 275.395879 0.159999 7.561969 0.032 10.050959-1.659993 9.508961-9.476961-1.690993-24.313901-5.424978-48.116804-13.784944-71.089711z m-400.05837-22.302909c-13.369946-0.319999-23.516904-11.199954-23.229906-24.887898 0.286999-13.177946 10.593957-22.973906 24.122902-22.846907 13.879943 0.127999 23.738903 10.210958 23.610904 24.154901-0.159999 13.464945-11.007955 23.929903-24.5049 23.579904z m258.611946 0c-13.082947-0.159999-23.771903-11.295954-23.611903-24.632899 0.159999-13.018947 10.624957-23.101906 23.962902-23.101906 13.655944 0 24.025902 10.338958 23.993902 23.930902 0.032 13.273946-10.943955 23.962902-24.344901 23.803903z"/>
</svg>
