<svg class="icon" viewBox="0 0 1024 1024" version="1.1" xmlns="http://www.w3.org/2000/svg" width="256" height="256">
    <path fill="#9B9B9B" d="M895.575324 341.617778c-160.597333 105.813333-138.979556 328.362667 27.420445 412.046222-29.354667 88.177778-75.377778 166.4-142.563556 231.196444-36.693333 35.441778-80.611556 46.819556-130.161777 29.468445-14.051556-4.892444-28.273778-9.443556-42.097778-15.132445-55.921778-22.926222-111.331556-21.504-167.537778 0.227556-102.684444 39.708444-141.994667 28.273778-210.830222-58.026667a650.752 650.752 0 0 1-141.994667-348.728889c-7.68-78.506667 4.551111-153.429333 44.999111-222.208 62.179556-105.756444 179.313778-150.698667 292.807111-104.903111 59.733333 24.064 112.412444 24.462222 171.235556-0.341333 94.321778-39.822222 184.263111-27.079111 264.248889 39.082667 12.8 10.638222 22.812444 24.576 34.474666 37.319111zM708.240213 1.308444c11.491556 121.002667-94.151111 240.241778-199.111111 227.555556-22.072889-104.277333 91.136-234.951111 199.111111-227.555556z"/>
</svg>
