<svg class="icon" version="1.1" viewBox="0 0 200 200" xmlns="http://www.w3.org/2000/svg" width="256" height="256">
    <path fill="#9B9B9B" d="M89.1,48.28c-0.08-0.55,0.74-0.9,1.25-1.13c0.66-0.27,1.52-0.39,2.15-0.04c0.16,0.08,0.31,0.27,0.23,0.43 c-0.16,0.47-0.94,0.39-1.37,0.62c-0.39,0.2-0.7,0.66-1.17,0.66C89.81,48.86,89.14,48.67,89.1,48.28z M98.75,48.16 c0.39,0.2,0.7,0.66,1.17,0.66c0.43,0,1.09-0.16,1.13-0.59c0.08-0.55-0.74-0.9-1.25-1.13c-0.66-0.27-1.52-0.39-2.15-0.04 c-0.16,0.08-0.31,0.27-0.23,0.43C97.54,48,98.32,47.93,98.75,48.16z M182.61,169.32c-0.2,3.2-2.54,5.39-5.43,7.15 c-5.82,3.52-14.57,6.17-19.88,12.58l-1.02-0.86l1.02,0.86c-5.55,6.6-12.38,10.39-18.87,10.9c-6.44,0.51-12.5-2.46-15.74-8.98v-0.04 c-0.43-0.82-0.74-1.72-0.98-2.62c-8.4,0.47-15.7-2.07-21.52-1.6c-8.59,0.47-13.98,2.54-18.87,2.58c-1.87,4.14-5.59,6.87-10.12,7.89 c-6.25,1.45-14.1,0-21.83-4.06l0.62-1.17l-0.62,1.17c-7.23-3.83-16.4-3.48-23.16-4.88c-3.4-0.7-6.37-1.95-7.85-4.8 c-1.45-2.85-1.17-6.76,0.86-12.38c0.66-1.99,0.16-4.96-0.31-8.12c-0.23-1.52-0.47-3.09-0.47-4.61c0-1.68,0.27-3.32,1.09-4.84 c1.76-3.32,4.61-4.73,7.23-5.66c2.62-0.94,5-1.56,6.64-3.24c2.03-2.15,3.94-5.62,6.48-7.89c-1.02-6.72,0.08-13.83,2.42-20.82 c4.92-14.8,15.31-28.98,22.69-37.77c6.29-8.94,8.12-16.13,8.79-25.27C74.22,40.39,64.22-0.08,104.22,0 c31.6,0.04,29.8,33.36,29.61,51.28c-0.12,11.76,6.37,19.72,13.05,28.12c5.94,7.03,13.71,17.3,18.16,29.06 c3.63,9.61,5.04,20.23,1.45,30.9c0.55,0.2,1.09,0.47,1.6,0.78c0.55,0.31,1.05,0.7,1.56,1.13c2.58,2.19,3.4,5.59,4.1,8.75 c0.74,3.16,1.41,6.13,2.81,7.69C180.89,162.56,182.77,166.12,182.61,169.32L182.61,169.32z M98.75,42.61 c1.41,0.35,3.48,0.94,5.08,1.72c-0.82-4.77,1.76-9.18,4.61-8.98c3.48,0.12,5.43,6.05,3.55,10.66c-0.31,0.74-1.09,1.33-1.52,1.8 c2.62,0.9,4.3,1.6,4.92,1.91c3.09-3.71,4.22-10.23,1.68-15.78c-3.83-8.36-13.36-8.51-17.19,0.16 C98.63,36.91,98.36,39.92,98.75,42.61z M80.7,49.96c3.05-2.23,2.7-1.84,2.3-2.15c-3.12-2.7-2.58-10.7,0.7-10.98 c2.46-0.2,4.22,4.18,3.75,7.66c1.21-0.82,2.62-1.41,3.98-1.8c0.66-7.54-3.52-13.08-7.46-13.08C76.6,29.61,74.61,44.25,80.7,49.96z  M77.03,58.12c0.59,1.91,2.38,4.1,5.74,5.98c3.05,1.8,4.69,4.49,7.81,5.86c1.02,0.43,2.23,0.74,3.75,0.82 c7.19,0.43,10.59-4.41,14.92-5.82c4.57-1.45,7.85-4.3,8.87-7.07c1.25-3.32-0.82-5.74-4.1-7.11c-4.41-1.91-6.37-2.03-8.83-3.63 c-4.02-2.58-7.34-3.48-10.12-3.48c-5.62,0-9.06,3.83-10.9,5.55c-0.2,0.2-3.09,2.3-5.51,4.1C77.03,54.6,76.49,56.21,77.03,58.12 L77.03,58.12z M63.95,156.86l-7.66-13.91c-2.66-3.59-5.39-5.78-8.55-6.25c-3.01-0.47-4.92,0.55-6.91,2.7 c-1.87,1.99-3.44,4.8-5.59,7.03c-3.05,2.54-3.63,2.42-7.66,3.87c-2.46,0.86-4.41,1.8-5.78,4.41c-1.05,1.95-0.82,4.77-0.35,7.81 c0.47,3.09,1.17,6.37,0.23,9.34v0.08c-1.95,5.35-1.95,8.48-1.02,10.31c3.09,6.02,18.2,2.38,29.88,8.55 c12.26,6.41,28.36,6.68,29.41-7.03C80.78,175.77,67.66,164.63,63.95,156.86z M124.06,170.85c1.25-4.3,2.46-8.32,2.66-11.33 c0.31-5.94,0.62-11.21,1.72-15.58c1.21-4.92,3.63-9.02,8.36-10.66c0.9-8.24,7.3-8.24,14.96-4.88c7.38,3.32,10.16,6.25,8.91,10.19 c0.39,0,0.78-0.04,1.64,0c2.03-6.6-5.59-10.94-11.99-13.59c1.13-4.69,0.94-9.41-0.16-13.94c-2.34-9.88,1.76-1.29-3.63,12.66 c-1.52-0.39-2.97-0.59-4.26-0.55c-2.07-11.37-6.84-20.78-9.22-25.23c-4.49-8.36-11.52-25.51-14.53-37.38 c-1.76,2.5-4.84,4.65-8.71,5.86c-1.84,0.59-3.79,2.15-6.21,3.52c-5.43,3.12-11.72,3.44-16.56-0.47c-1.76-1.41-3.12-2.97-4.92-4.02 c-0.62-0.35-1.99-1.29-2.42-1.6c-0.78,14.76-10.66,33.32-15.35,44.02c-3.24,7.69-5.16,15.94-5.39,24.02 c-8.51-11.37-4.18-26.13-6.21-17.19c-1.05,4.65-1.25,9.37,0.12,13.75c1.37,4.37,4.34,8.4,9.61,11.68c0,0,9.69,5.59,14.96,12.69 c2.89,3.91,3.79,7.3,2.89,9.73c-0.98,2.62-3.75,3.48-6.52,3.48c1.87,2.34,4.02,5.08,5.62,7.66 C94.1,183.7,111.52,179.79,124.06,170.85L124.06,170.85z M174.6,159.56c-3.91-4.41-2.81-12.93-6.68-16.25 c-2.7-2.34-5.31-2.11-8.83-1.99c-3.01,3.44-10.08,7.66-15,6.37c-4.49-1.13-7.03-6.37-7.34-11.52c-0.12,0.08-0.27,0.12-0.39,0.2 c-2.77,1.52-4.34,4.22-5.35,8.24c-0.98,3.98-1.33,9.18-1.64,15.12c-0.27,4.61-2.42,10.31-3.87,15.86 c-1.37,5.16-2.27,9.84-0.43,14.18c2.81,5.66,7.62,7.97,13.16,7.54c5.55-0.43,11.87-3.83,17.03-9.96 c8.59-10.39,24.33-11.6,24.69-18.16C180.07,167.17,178.74,164.09,174.6,159.56L174.6,159.56z M80.2,58.08 c0.78,0.74,1.84,1.76,3.12,2.77c2.58,2.03,6.17,4.14,10.66,4.14c4.53,0,8.79-2.3,12.42-4.22c1.91-1.02,4.26-2.73,5.78-4.06 s2.3-2.46,1.21-2.58c-1.09-0.12-1.02,1.02-2.34,1.99c-1.72,1.25-3.79,2.89-5.43,3.83c-2.89,1.64-7.62,3.98-11.68,3.98 c-4.06,0-7.3-1.87-9.73-3.79c-1.21-0.98-2.23-1.95-3.01-2.7c-0.59-0.55-0.74-1.8-1.68-1.91C78.99,55.5,78.83,56.99,80.2,58.08z"/>
</svg>
